<svg width="150" height="26" viewBox="0 0 150 26" fill="none" xmlns="http://www.w3.org/2000/svg">
<path d="M13.2648 26C20.4445 26 26.2648 20.1797 26.2648 13C26.2648 13 27.2648 13 24.2648 13C21.2649 13 13.2648 23 13.2648 24V26Z" fill="#FDC700"/>
<path d="M13.2648 0C6.08512 0 0.264822 5.8203 0.264822 13C0.264822 13 -1 13 2 13C5 13 13.2648 5 13.2648 2L13.2648 0Z" fill="#9027F8"/>
<path fill-rule="evenodd" clip-rule="evenodd" d="M26.2648 13C26.2648 5.8203 20.4445 0 13.2648 0L13.2648 2C13.2648 5 21.2649 13 24.2648 13C27.2648 13 26.2648 13 26.2648 13Z" fill="#2BA7FE"/>
<path d="M0.264822 13C0.264822 20.1797 6.08512 26 13.2648 26V24C13.2648 23 5 13 2 13C-1 13 0.264822 13 0.264822 13Z" fill="#F60168"/>
<path d="M51.4873 5.50391C51.6162 5.05859 52.0967 4.80078 52.9287 4.73047C53.7139 4.67188 54.2178 4.80078 54.4639 5.11719C54.5459 5.22266 54.5693 5.35156 54.5342 5.50391C53.7256 8.38672 52.7647 11.3281 51.6631 14.3398C50.5732 17.3516 49.7647 19.168 49.2373 19.8125C49.0147 20.0703 48.71 20.1992 48.3232 20.1875C47.9365 20.1875 47.6318 20.0586 47.3857 19.8125C46.8115 19.1562 45.9326 17.1641 44.749 13.8359C43.5654 17.0703 42.6748 19.0625 42.0772 19.8125C41.8545 20.0703 41.5498 20.1992 41.1631 20.1875C40.7764 20.1875 40.4717 20.0586 40.2373 19.8125C39.6865 19.168 38.8779 17.375 37.8115 14.4102C36.7451 11.4453 35.7842 8.48047 34.9287 5.50391C34.835 5.14062 35.0693 4.89453 35.6436 4.76562C36.3467 4.625 36.9678 4.70703 37.5186 5C37.7647 5.12891 37.9053 5.29297 37.9522 5.50391C39.1357 9.93359 40.2022 13.4023 41.1397 15.9219C42.042 13.9648 42.8154 12.0195 43.4717 10.0859C42.8037 7.97656 42.335 6.45312 42.0772 5.50391C41.9834 5.14062 42.2295 4.89453 42.8037 4.78906C43.5068 4.63672 44.1397 4.70703 44.7022 5C44.9482 5.14062 45.0889 5.30469 45.124 5.50391C46.1436 9.59375 47.21 13.0742 48.2998 15.9219C49.3897 13.1328 50.4443 9.66406 51.4873 5.50391ZM63.0134 18.6641C62.0173 19.6602 60.6345 20.1641 58.8415 20.1641C57.0486 20.1641 55.6658 19.6602 54.6697 18.6641C53.6736 17.668 53.1814 16.2617 53.1814 14.457C53.1814 12.6406 53.6736 11.2344 54.6697 10.2148C55.6658 9.19531 57.0486 8.69141 58.8415 8.69141C60.6345 8.69141 62.0173 9.19531 63.0134 10.2148C64.0095 11.2344 64.5017 12.6406 64.5017 14.457C64.5017 16.2617 64.0095 17.668 63.0134 18.6641ZM61.7009 14.457C61.7009 12.1133 60.6697 10.8125 58.8415 10.8125C57.0134 10.8125 55.9822 12.1133 55.9822 14.457C55.9822 16.7539 57.0486 18.0547 58.8415 18.0547C60.6345 18.0547 61.7009 16.7539 61.7009 14.457ZM72.5473 8.82031C72.8168 8.82031 72.9692 9.04297 72.9926 9.47656C73.0161 9.91016 72.9223 10.3672 72.7231 10.8242C72.5239 11.2812 72.2895 11.5039 72.02 11.5039C70.5317 11.5859 69.3247 12.1133 68.3989 13.1094V19.4492C68.3989 19.7539 68.1645 19.9648 67.684 20.082C67.2153 20.2109 66.7465 20.2109 66.2661 20.082C65.7973 19.9648 65.5629 19.7539 65.5629 19.4492V9.46484C65.5629 9.17188 65.7504 8.97266 66.1372 8.85547C66.5239 8.72656 66.9223 8.71484 67.3325 8.79688C67.7426 8.87891 67.9653 9.01953 68.0122 9.24219L68.3754 10.707C69.3715 9.5 70.7543 8.86719 72.5473 8.82031ZM83.8273 17.5039C84.1906 17.3633 84.4367 17.5508 84.5539 18.0781C84.6945 18.6875 84.6007 19.2031 84.2843 19.6133C84.1789 19.7539 84.05 19.8477 83.8976 19.9062C82.714 20.3516 81.7765 20.1055 81.1086 19.6719C80.8859 19.543 80.6632 19.3438 80.4406 19.0742C80.2179 18.8047 80.0422 18.582 79.9015 18.3828C79.7726 18.1836 79.5968 17.9141 79.3859 17.5742C78.7648 16.6602 78.3429 16.0977 78.1437 15.875C77.6867 16.2617 77.2531 16.5781 76.8664 16.8359V19.4492C76.8664 19.7539 76.632 19.9648 76.175 20.082C75.7179 20.2109 75.2492 20.2109 74.7687 20.082C74.3 19.9648 74.0656 19.7539 74.0656 19.4492V5.21094C74.0656 4.75391 74.4289 4.32031 75.1672 3.92188C75.882 3.52344 76.3976 3.42969 76.7023 3.65234C76.8078 3.73438 76.8664 3.85156 76.8664 4.01562V13.9531C78.4953 12.6523 80.007 11.1641 81.3781 9.46484C81.7297 9.03125 82.3976 8.80859 83.3703 8.77344C84.1554 8.76172 84.5656 8.89062 84.6242 9.17188C84.6359 9.25391 84.6125 9.34766 84.5304 9.46484C83.0422 11.3398 81.5304 12.9688 79.9953 14.3398C80.2414 14.6094 80.5695 15.1016 80.9797 15.8047C81.1203 16.0508 81.2375 16.2383 81.3312 16.3672C81.5304 16.6367 81.8351 17.0703 82.1164 17.2695C82.6086 17.5859 83.0656 17.75 83.8273 17.5039ZM87.9237 9.03125C87.9237 9.76953 88.2167 10.2734 88.9667 10.6016C89.3417 10.7539 89.6698 10.8711 89.9511 10.9414C90.2323 11.0117 90.6659 11.1055 91.2636 11.2109C91.8729 11.3164 92.3417 11.4219 92.6815 11.5039C93.0214 11.5859 93.4432 11.7383 93.9472 11.9609C94.4628 12.1836 94.8495 12.4414 95.119 12.7227C95.6698 13.2734 96.1503 14.3164 96.1503 15.6289C96.1503 17.0938 95.6347 18.2188 94.5917 19.0039C93.5487 19.7773 92.2362 20.1641 90.6542 20.1641C89.0722 20.1641 87.5136 19.7773 85.9784 19.0156C85.58 18.8398 85.3456 18.3594 85.2636 17.5977C85.205 16.8945 85.3222 16.4961 85.6151 16.4023C85.6972 16.3672 85.8026 16.3906 85.9315 16.4492C87.6425 17.3164 89.1776 17.75 90.537 17.7383C92.2714 17.7383 93.3261 16.9883 93.3261 15.6758C93.3261 15.0664 92.9979 14.5742 92.6581 14.3047C92.494 14.1641 92.2362 14.0352 91.8847 13.9062C91.5331 13.7773 91.2284 13.6836 90.9823 13.625C90.7362 13.5664 90.3729 13.4961 89.9159 13.4023C89.3065 13.2734 88.8495 13.1797 88.5331 13.0977C88.2167 13.0156 87.8065 12.8633 87.2909 12.6523C86.787 12.4297 86.4003 12.1953 86.1425 11.9258C85.6386 11.3984 85.1347 10.4609 85.1347 9.24219C85.1347 7.77734 85.6386 6.65234 86.6464 5.86719C87.6542 5.08203 88.9315 4.68359 90.4667 4.68359C92.0722 4.68359 93.5956 5.07031 95.0487 5.84375C95.4354 6.04297 95.6581 6.51172 95.7284 7.26172C95.787 7.95312 95.6815 8.32812 95.3886 8.41016C95.3065 8.42188 95.2128 8.41016 95.0956 8.36328C93.3261 7.44922 91.7675 6.99219 90.4432 6.99219C88.8847 6.99219 87.9237 7.71875 87.9237 9.03125ZM103.926 8.71484C105.204 8.71484 106.235 9.24219 107.02 10.3086C107.805 11.3633 108.192 12.7578 108.192 14.4805C108.192 16.1914 107.794 17.5625 107.008 18.5938C106.223 19.625 105.204 20.1406 103.926 20.1406C102.415 20.1406 101.149 19.7188 100.106 18.875V24.3008C100.106 24.5938 99.8717 24.793 99.3912 24.9219C98.9225 25.0508 98.4537 25.0391 97.9733 24.9102C97.5045 24.7812 97.2701 24.582 97.2701 24.3008V9.41797C97.2701 8.98438 97.6334 8.76172 98.36 8.73828C99.0983 8.70312 99.5201 8.86719 99.6256 9.21875L99.9889 10.1797C101.044 9.20703 102.356 8.71484 103.926 8.71484ZM102.696 17.6914C104.465 17.6914 105.356 16.6133 105.356 14.457C105.356 12.2656 104.465 11.1641 102.696 11.1641C101.747 11.1992 100.891 11.5859 100.106 12.3477V16.5664C100.891 17.2812 101.747 17.6562 102.696 17.6914ZM121.253 17.4805C121.652 17.3398 121.898 17.5156 121.992 18.0078C122.097 18.5586 121.98 19.0391 121.628 19.4492C121.523 19.5547 121.394 19.6484 121.253 19.707C120.585 19.9766 119.976 20.1172 119.449 20.1172C118.476 20.1172 117.82 19.6602 117.503 18.7578C116.402 19.707 115.007 20.1758 113.331 20.1641C112.066 20.1641 111.058 19.8477 110.32 19.2266C109.581 18.5938 109.206 17.7383 109.206 16.6719C109.206 15.5938 109.605 14.7383 110.39 14.0938C111.175 13.4492 112.242 13.1328 113.589 13.1328C115.171 13.1328 116.39 13.3555 117.222 13.7891V13.6367C117.222 12.6641 116.976 11.9727 116.495 11.5742C116.015 11.1758 115.23 10.9766 114.117 10.9766C112.593 10.9766 111.281 11.3047 110.167 11.9609C109.827 12.1719 109.605 12.0547 109.488 11.6211C109.359 11.1055 109.464 10.6367 109.781 10.2266C109.839 10.1445 109.91 10.0859 109.968 10.0391C111.035 9.13672 112.699 8.69141 114.96 8.69141C116.589 8.69141 117.843 9.05469 118.71 9.76953C119.589 10.4844 120.023 11.6562 120.023 13.2852V16.2266C120.023 17.1289 120.257 17.5742 120.726 17.5742C120.902 17.5742 121.077 17.5391 121.253 17.4805ZM117.222 16.707V15.7578C116.66 15.3945 115.663 15.207 114.222 15.1953C112.757 15.1953 112.031 15.8164 112.031 16.6133C112.031 17.4922 112.71 17.9375 114.07 17.9375C115.429 17.9375 116.484 17.5273 117.222 16.707ZM122.408 14.457C122.408 12.5469 122.947 11.1172 124.037 10.1445C125.127 9.17188 126.592 8.69141 128.455 8.69141C129.92 8.69141 131.092 9.05469 131.959 9.78125C132.275 10.0859 132.428 10.6016 132.416 11.3164C132.404 11.9141 132.252 12.1953 131.959 12.1719C131.9 12.1719 131.818 12.1484 131.736 12.1016C130.822 11.4805 129.85 11.1641 128.83 11.1641C127.775 11.1641 126.908 11.4336 126.229 11.9844C125.549 12.5352 125.209 13.3555 125.209 14.457C125.209 15.5469 125.549 16.3555 126.229 16.8945C126.908 17.4219 127.775 17.6914 128.83 17.6914C129.897 17.6914 130.857 17.3867 131.736 16.7891C132.088 16.5664 132.311 16.7188 132.393 17.2695C132.486 17.9141 132.393 18.4648 132.1 18.9219C132.053 18.9805 132.006 19.0391 131.959 19.0859C131.045 19.8008 129.873 20.1641 128.455 20.1641C126.615 20.1641 125.139 19.6836 124.049 18.7227C122.959 17.75 122.408 16.332 122.408 14.457ZM142.688 9.48828C142.829 9.05469 143.321 8.80859 144.153 8.73828C144.938 8.67969 145.419 8.80859 145.618 9.125C145.677 9.23047 145.688 9.35938 145.641 9.48828C144.188 13.6484 142.161 17.9375 139.571 22.3555C138.575 24.0547 137.391 24.8984 136.02 24.8984C135.411 24.8984 134.79 24.7344 134.145 24.418C133.782 24.207 133.606 23.7734 133.618 23.1172C133.653 22.543 133.817 22.2148 134.122 22.1328C134.227 22.0977 134.356 22.1211 134.509 22.2031C134.86 22.4141 135.2 22.5195 135.516 22.5195C136.184 22.5195 136.841 21.9688 137.462 20.8672L138.13 19.6367C135.821 16.1797 134.087 12.8047 132.927 9.51172C132.786 9.125 133.02 8.87891 133.618 8.77344C134.321 8.63281 134.93 8.71484 135.446 9.03125C135.669 9.16016 135.821 9.3125 135.88 9.51172C136.677 11.9727 137.872 14.5039 139.454 17.0938C140.743 14.4336 141.821 11.9023 142.688 9.48828Z" fill="#DADBDD"/>
</svg>
