<svg width="27" height="26" viewBox="0 0 27 26" fill="none" xmlns="http://www.w3.org/2000/svg">
<path d="M13.2648 26C20.4445 26 26.2648 20.1797 26.2648 13C26.2648 13 27.2648 13 24.2648 13C21.2649 13 13.2648 23 13.2648 24V26Z" fill="#FDC700"/>
<path d="M13.2648 0C6.08512 0 0.264822 5.8203 0.264822 13C0.264822 13 -1 13 2 13C5 13 13.2648 5 13.2648 2L13.2648 0Z" fill="#9027F8"/>
<path fill-rule="evenodd" clip-rule="evenodd" d="M26.2648 13C26.2648 5.8203 20.4445 0 13.2648 0L13.2648 2C13.2648 5 21.2649 13 24.2648 13C27.2648 13 26.2648 13 26.2648 13Z" fill="#2BA7FE"/>
<path d="M0.264822 13C0.264822 20.1797 6.08512 26 13.2648 26V24C13.2648 23 5 13 2 13C-1 13 0.264822 13 0.264822 13Z" fill="#F60168"/>
</svg>
